<svg width="24" height="25" viewBox="0 0 24 25" fill="none" xmlns="http://www.w3.org/2000/svg">
<path d="M16.7456 7.71563C16.6673 6.64771 16.459 5.77521 16.1206 5.09813C15.7823 4.42104 15.369 3.89042 14.8806 3.50625C14.3923 3.12208 13.8552 2.85833 13.2694 2.715C12.6965 2.57167 12.13 2.5 11.57 2.5C11.01 2.5 10.4371 2.57167 9.85125 2.715C9.27833 2.85833 8.74771 3.12208 8.25937 3.50625C7.77104 3.89042 7.35771 4.42104 7.01937 5.09813C6.66771 5.77521 6.45292 6.64771 6.375 7.71563H2V19.3175C2 20.19 2.3125 20.9387 2.9375 21.5637C3.5625 22.1887 4.31125 22.5012 5.18375 22.5012H17.9375C18.8229 22.5012 19.5748 22.1887 20.1931 21.5637C20.8115 20.9387 21.1206 20.19 21.1206 19.3175V7.71563H16.7456ZM11.57 4.23875C12.3121 4.23875 13.0379 4.43729 13.7475 4.83437C14.4571 5.23146 14.89 6.19167 15.0463 7.715H8.13187C8.26229 6.19167 8.68542 5.23146 9.40125 4.83437C10.1171 4.43729 10.8404 4.23875 11.57 4.23875ZM19.3825 19.3169C19.3825 19.7077 19.2425 20.0462 18.9625 20.3325C18.6825 20.6187 18.3406 20.7621 17.9369 20.7625H5.18312C4.79229 20.7625 4.45375 20.6192 4.1675 20.3325C3.88125 20.0458 3.73792 19.7073 3.7375 19.3169V9.45375H6.355V10.3325C6.355 10.5671 6.43958 10.769 6.60875 10.9381C6.77792 11.1073 6.97979 11.1919 7.21437 11.1919C7.46187 11.1919 7.67021 11.1073 7.83937 10.9381C8.00854 10.769 8.09312 10.5671 8.09312 10.3325V9.45375H15.0463V10.3325C15.0463 10.5671 15.1308 10.769 15.3 10.9381C15.4692 11.1073 15.671 11.1919 15.9056 11.1919C16.1531 11.1919 16.3615 11.1073 16.5306 10.9381C16.6998 10.769 16.7844 10.5671 16.7844 10.3325V9.45375H19.3819L19.3825 19.3169Z" fill="black"/>
</svg>
